<?xml version="1.0" encoding="UTF-8" standalone="no"?><!DOCTYPE svg PUBLIC "-//W3C//DTD SVG 1.1//EN" "http://www.w3.org/Graphics/SVG/1.1/DTD/svg11.dtd"><svg width="100%" height="100%" viewBox="0 0 29492 29492" version="1.1" xmlns="http://www.w3.org/2000/svg" xmlns:xlink="http://www.w3.org/1999/xlink" xml:space="preserve" style="fill-rule:evenodd;clip-rule:evenodd;stroke-linecap:round;stroke-linejoin:round;stroke-miterlimit:1.5;"><g id="Legit-logo"><g id="Wifi-Logo"><circle cx="12562.7" cy="22503.8" r="684.528" style="fill:#09f;"/><path d="M12596.2,20450.1c25.411,0.156 50.814,0.689 76.205,1.737c41.664,1.721 83.276,4.713 124.756,8.977c139.772,14.37 278.048,43.273 411.758,86.477c134.826,43.564 264.917,101.654 387.318,173.028c120.554,70.297 233.547,153.388 336.932,247.105c57.445,52.074 111.932,107.394 163.263,165.5c15.706,17.779 31.115,35.819 46.227,54.105c3.637,4.401 6.497,7.889 10.103,12.317c5.811,7.137 10.298,12.651 16.116,20.707c7.393,10.235 14.205,20.877 20.405,31.876c15.499,27.494 27.109,57.158 34.391,87.868c7.282,30.71 10.226,62.429 8.722,93.955c-2.107,44.154 -12.974,87.797 -31.818,127.784c-21.544,45.716 -53.412,86.375 -92.658,118.216c-24.509,19.885 -51.809,36.3 -80.866,48.623c-29.056,12.323 -59.834,20.539 -91.166,24.337c-37.605,4.558 -75.938,2.728 -112.938,-5.39c-24.66,-5.41 -48.705,-13.597 -71.543,-24.36c-28.55,-13.454 -55.184,-30.928 -78.894,-51.761c-9.485,-8.333 -18.495,-17.193 -26.987,-26.536c-8.091,-8.903 -15.536,-18.353 -23.178,-27.633c-3.501,-4.221 -7.018,-8.428 -10.55,-12.623c-17.396,-20.521 -35.277,-40.618 -53.744,-60.182c-34.414,-36.461 -70.75,-71.115 -108.884,-103.666c-83.185,-71.005 -174.991,-131.84 -273.115,-180.183c-89.942,-44.311 -185.01,-78.054 -282.687,-100.652c-60.483,-13.993 -121.945,-23.722 -183.778,-29.228c-167.715,-14.934 -337.854,1.314 -500.139,45.932c-133.207,36.623 -261.169,92.374 -378.54,165.258c-81.829,50.813 -158.502,109.932 -228.23,176.395c-25.335,24.148 -49.755,49.257 -73.178,75.264c-10.702,11.884 -21.173,23.969 -31.474,36.201l-3.078,3.682l-3.452,4.157l-12.496,14.221c-4.424,4.499 -8.725,9.124 -13.274,13.498c-9.101,8.75 -18.687,16.983 -28.711,24.659c-35.096,26.876 -75.453,46.729 -118.162,58.129c-30.494,8.139 -62.118,11.97 -93.674,11.349c-31.555,-0.62 -63.004,-5.693 -93.154,-15.025c-48.278,-14.944 -92.992,-40.817 -130.005,-75.228c-37.014,-34.41 -66.073,-77.122 -84.491,-124.185c-16.11,-41.164 -24.015,-85.439 -23.145,-129.636c0.621,-31.555 5.694,-63.004 15.026,-93.154c9.332,-30.15 22.913,-58.966 40.227,-85.354c3.462,-5.276 7.073,-10.457 10.825,-15.531c7.902,-10.685 16.549,-20.829 25.124,-30.976c13.859,-16.396 27.975,-32.575 42.342,-48.528c56.962,-63.248 117.875,-122.931 182.232,-178.636c126.653,-109.628 266.613,-203.737 415.689,-280.099c149.458,-76.557 308.042,-135.226 471.31,-174.482c104.991,-25.243 211.924,-42.453 319.545,-51.306c36.706,-3.019 73.492,-5.073 110.306,-6.145c18.449,-0.537 36.903,-0.797 55.359,-0.87c4.61,-0.003 9.219,0.001 13.828,0.012Z" style="fill:#09f;fill-rule:nonzero;"/><path d="M12584.4,19063.2c24.589,0.096 49.174,0.377 73.757,0.956c52.824,1.243 105.621,3.682 158.334,7.33c166.658,11.537 332.48,35.115 495.693,70.768c183.94,40.18 364.513,95.734 539.129,166.158c151.398,61.06 298.269,133.319 439.034,215.992c165.261,97.061 322.022,208.486 468.297,332.309c57.264,48.474 112.926,98.84 166.901,150.952c28.684,27.694 56.841,55.917 84.607,84.53l41.199,51.768c10.102,19.604 22.175,38.312 30.308,58.812c16.344,41.197 24.413,85.211 23.747,129.527c-0.666,44.316 -10.054,88.067 -27.628,128.755c-17.575,40.688 -42.991,77.516 -74.798,108.381c-15.827,15.358 -33.25,29.224 -51.769,41.199c-37.217,24.067 -78.811,40.568 -122.405,48.56c-43.595,7.993 -88.336,7.321 -131.671,-1.978c-43.335,-9.299 -84.414,-27.042 -120.891,-52.217c-18.151,-12.526 -33.672,-28.49 -50.507,-42.736c-4.658,-4.799 -9.323,-9.591 -13.997,-14.374c-13.613,-13.836 -27.316,-27.58 -41.188,-41.157c-31.938,-31.26 -64.617,-61.763 -98.023,-91.449c-92.601,-82.29 -190.755,-158.32 -293.758,-227.155c-114.177,-76.302 -234.289,-143.702 -358.925,-201.361c-116.323,-53.813 -236.565,-99.109 -359.425,-135.599c-211.202,-62.729 -430.04,-99.267 -650.078,-109.776c-364.067,-17.388 -731.529,36.126 -1075.37,157.118c-293.043,103.118 -569.597,255.599 -808.063,455.22c-50.431,42.215 -99.116,86.525 -145.804,132.848c-24.268,24.079 -47.943,48.735 -71.143,73.842l-49.448,43.958c-19.025,11.155 -37.047,24.229 -57.074,33.466c-40.246,18.563 -83.755,29.017 -128.041,30.766c-44.287,1.748 -88.484,-5.243 -130.069,-20.576c-41.585,-15.332 -79.742,-38.705 -112.294,-68.784c-16.197,-14.967 -30.991,-31.609 -43.957,-49.448c-26.058,-35.852 -44.8,-76.485 -55.155,-119.579c-10.354,-43.095 -12.12,-87.807 -5.195,-131.584c6.925,-43.776 22.405,-85.761 45.556,-123.555c11.519,-18.806 26.614,-35.173 39.922,-52.76c4.488,-4.857 8.986,-9.705 13.492,-14.545c32.492,-34.67 65.701,-68.648 99.776,-101.766c63.22,-61.446 129.17,-120.079 197.513,-175.77c52.574,-42.842 106.561,-83.949 161.816,-123.273c47.01,-33.457 94.936,-65.627 143.69,-96.488c353.072,-223.493 748.738,-377.975 1158.29,-459.501c153.341,-30.525 308.718,-50.822 464.753,-60.734c48.863,-3.103 97.792,-5.187 146.742,-6.243c21.021,-0.453 42.043,-0.686 63.068,-0.795c7.016,-0.014 14.032,-0.018 21.048,-0.012Z" style="fill:#09f;fill-rule:nonzero;"/><path d="M12602.1,17685.6c42.75,0.147 85.494,0.73 128.229,1.923c85.734,2.394 171.406,7.03 256.897,13.91c249.062,20.044 496.607,59.215 739.536,117.741c227.706,54.859 451.306,126.762 668.122,215.385c219.113,89.562 431.194,196.28 633.594,319.028c192.921,116.999 376.954,248.612 550.183,393.169c62.484,52.143 123.568,105.963 183.178,161.368c36.955,34.348 73.307,69.332 109.148,104.839l5.466,5.432c14.042,17.006 29.818,32.717 42.126,51.017c24.734,36.777 41.983,78.066 50.76,121.51c8.778,43.443 8.913,88.19 0.397,131.685c-8.515,43.495 -25.514,84.888 -50.027,121.813c-24.512,36.926 -56.057,68.662 -92.835,93.397c-18.3,12.307 -37.905,22.863 -58.255,31.364c-40.896,17.084 -84.756,25.946 -129.077,26.079c-44.321,0.134 -88.235,-8.463 -129.233,-25.301c-20.4,-8.378 -40.069,-18.815 -58.443,-31.012c-18.374,-12.197 -34.314,-27.716 -51.27,-41.818c-1.83,-1.522 -3.374,-3.357 -5.064,-5.034c-1.622,-1.609 -3.245,-3.217 -4.869,-4.824c-4.853,-4.8 -9.722,-9.584 -14.597,-14.361c-8.129,-7.947 -16.288,-15.862 -24.472,-23.752c-21.184,-20.345 -42.557,-40.492 -64.176,-60.376c-50.972,-46.883 -103.184,-92.419 -156.587,-136.514c-129.542,-106.961 -266.066,-205.447 -408.51,-294.51c-151.43,-94.68 -309.52,-178.688 -472.665,-251.341c-154.789,-68.932 -314.089,-127.663 -476.488,-176.002c-87.532,-26.054 -175.961,-49.087 -265.065,-69.115c-572.183,-128.607 -1170.91,-132.576 -1746.12,-20.343c-240.237,46.874 -476.569,114.045 -705.264,201.321c-212.643,81.149 -418.73,179.704 -614.605,295.673c-164.595,97.449 -321.976,207.237 -469.356,329.206c-57.949,47.957 -114.347,97.79 -169,149.473c-27.283,25.801 -54.071,52.105 -80.51,78.768l-50.965,42.189c-19.406,10.478 -37.878,22.909 -58.217,31.435c-20.339,8.526 -41.619,15.079 -63.231,19.473c-43.433,8.831 -88.179,9.02 -131.685,0.558c-43.506,-8.463 -84.918,-25.412 -121.874,-49.879c-36.955,-24.467 -68.73,-55.974 -93.509,-92.721c-12.33,-18.285 -22.909,-37.878 -31.435,-58.217c-17.134,-40.875 -26.05,-84.725 -26.237,-129.046c-0.188,-44.32 8.356,-88.244 25.144,-129.263c8.353,-20.411 18.766,-40.092 30.941,-58.481c12.174,-18.388 27.565,-34.438 41.755,-51.32c2.766,-3.291 6.049,-6.111 9.081,-9.158c9.515,-9.564 19.079,-19.081 28.691,-28.547c22.438,-22.097 45.137,-43.928 68.091,-65.488c138.173,-129.787 285.496,-249.775 440.019,-359.565c286.656,-203.671 597.841,-372.269 923.318,-505.1c201.527,-82.246 408.617,-150.81 619.273,-205.57c253.855,-65.989 512.916,-111.927 773.963,-137.421c108.105,-10.558 216.553,-17.599 325.116,-21.103c47.373,-1.529 94.761,-2.313 142.158,-2.552c9.486,-0.021 18.972,-0.029 28.458,-0.022Z" style="fill:#09f;fill-rule:nonzero;"/></g><g id="Main-Donut"><path d="M14755.8,10789.8c4927.5,0 8928,4000.5 8928,8928c0,4927.5 -4000.5,8928 -8928,8928c-4927.5,0 -8928,-4000.5 -8928,-8928c0,-4927.5 4000.5,-8928 8928,-8928Zm0,1785.6c3942,0 7142.4,3200.4 7142.4,7142.4c0,3942 -3200.4,7142.4 -7142.4,7142.4c-3942,0 -7142.4,-3200.4 -7142.4,-7142.4c0,-3942 3200.4,-7142.4 7142.4,-7142.4Z" style="fill:#b56e51;"/><path d="M14755.8,10789.8c4927.5,0 8928,4000.5 8928,8928c0,4927.5 -4000.5,8928 -8928,8928c-4927.5,0 -8928,-4000.5 -8928,-8928c0,-4927.5 4000.5,-8928 8928,-8928Zm0,892.8c4434.75,0 8035.2,3600.45 8035.2,8035.2c0,4434.75 -3600.45,8035.2 -8035.2,8035.2c-4434.75,0 -8035.2,-3600.45 -8035.2,-8035.2c0,-4434.75 3600.45,-8035.2 8035.2,-8035.2Z" style="fill:#ffcd8c;"/><path d="M6343.32,19264.1c68.652,17.751 88.164,18.002 150.595,53.321c23.264,13.16 45.459,28.413 66.084,45.413c41.406,34.13 76.522,75.241 103.759,121.475c27.236,46.233 46.173,96.876 55.955,149.636c4.872,26.28 5.486,53.177 7.689,79.814c0.404,4.89 0.082,9.813 0.129,14.72c0.091,9.559 0.205,19.118 0.319,28.677c0.192,14.315 0.407,28.629 0.645,42.943c1.034,56.951 3.029,113.874 4.573,170.814c41.248,1521.69 831.303,3964.99 2440.43,5527.7c322.332,313.035 677.366,591.669 1050.09,842.57c348.283,234.449 714.752,441.81 1094.89,620.01c411.899,193.089 839.852,351.925 1278.01,474.268c396.496,110.711 801.338,191.545 1210.01,241.107c232.32,28.174 465.869,46.241 699.763,54.01c210.884,7.005 422.057,5.6 632.847,-3.725c466.859,-20.654 931.973,-81.202 1388.21,-182.508c303.604,-67.415 603.218,-152.773 896.704,-255.673c338.612,-118.722 669.035,-260.735 988.236,-424.635c216.056,-110.938 426.989,-231.851 631.933,-362.179c210.234,-133.693 414.183,-277.248 611.039,-429.954c396.771,-307.782 764.603,-652.737 1097.83,-1028.37c287.972,-324.61 550.119,-672.12 783.14,-1038.18c278.606,-437.67 1244.42,-1384.57 1290.88,-2014.58c21.321,-289.147 -602.768,-793.272 -316.132,-836.9c301.931,-45.955 834.045,-146.903 834.904,462.369c0.601,425.864 -118.212,1020.2 -277.569,1415.11c-206.268,511.16 -459.997,1003.07 -755.983,1468.04c-268.804,422.274 -572.453,822.351 -906.854,1194.84c-276.727,308.244 -574.499,597.613 -890.775,865.132c-308.897,261.277 -635.402,501.715 -976.802,718.817c-353.886,225.043 -723.776,424.947 -1106.08,597.357c-368.245,166.069 -747.948,306.658 -1135.57,420.375c-360.163,105.66 -727.092,188.134 -1097.77,247.101c-352.135,56.017 -707.605,90.819 -1063.88,104.828c-188.495,7.412 -377.237,9.118 -565.831,4.831c-190.235,-4.324 -380.328,-14.773 -569.897,-31.249c-601.487,-52.278 -1197.56,-165.507 -1776.63,-336.274c-510.526,-150.552 -1007.83,-345.808 -1484.42,-582.798c-485.794,-241.567 -950.034,-526.546 -1384.86,-851.039c-416.823,-311.06 -806.566,-658.383 -1162.66,-1037.49c-264.932,-282.054 -511.175,-581.652 -736.366,-896.349c-223.495,-312.327 -426.191,-639.524 -606.273,-978.741c-195.263,-367.814 -363.898,-749.698 -504.614,-1141.63c-135.37,-377.036 -244.879,-763.284 -328.511,-1155.04c-84.79,-397.183 -142.964,-799.962 -175.591,-1204.76c-12.457,-154.546 -21.201,-309.389 -26.325,-464.351c-2.767,-83.685 -4.415,-167.398 -5.15,-251.125l6.287,-79.936c17.751,-68.652 18.003,-88.164 53.321,-150.595c26.421,-46.705 60.81,-88.426 101.612,-123.277c40.801,-34.851 87.386,-62.295 137.647,-81.089c67.185,-25.123 86.497,-22.321 157.08,-29.121c26.645,2.096 53.291,4.192 79.936,6.288Z" style="fill:#965849;fill-rule:nonzero;"/></g><g id="Locket"><path d="M14755.8,836.228c2213.71,0 4010.95,1803.49 4010.95,4024.88c0,2221.39 -1797.25,4024.88 -4010.95,4024.88c-2213.71,0 -4010.95,-1803.49 -4010.95,-4024.88c0,-2221.39 1797.25,-4024.88 4010.95,-4024.88Zm0,1006.22c1660.28,0 3008.22,1352.62 3008.22,3018.66c0,1666.05 -1347.94,3018.66 -3008.22,3018.66c-1660.28,0 -3008.22,-1352.62 -3008.22,-3018.66c0,-1666.05 1347.94,-3018.66 3008.22,-3018.66Z" style="fill:#ffcd8c;"/><clipPath id="_clip1"><path d="M14755.8,836.228c2213.71,0 4010.95,1803.49 4010.95,4024.88c0,2221.39 -1797.25,4024.88 -4010.95,4024.88c-2213.71,0 -4010.95,-1803.49 -4010.95,-4024.88c0,-2221.39 1797.25,-4024.88 4010.95,-4024.88Zm0,1006.22c1660.28,0 3008.22,1352.62 3008.22,3018.66c0,1666.05 -1347.94,3018.66 -3008.22,3018.66c-1660.28,0 -3008.22,-1352.62 -3008.22,-3018.66c0,-1666.05 1347.94,-3018.66 3008.22,-3018.66Z"/></clipPath><g clip-path="url(#_clip1)"><ellipse cx="14751.9" cy="4907.76" rx="3509.18" ry="3580.4" style="fill:#b56e51;"/></g><path d="M11574.5,4160.73c299.191,-1360.56 1538.44,-2585.86 3173.91,-2549.89c1449.73,31.891 2530.84,770.727 3088.37,2214.36" style="fill:none;stroke:#9d5848;stroke-width:500px;"/><path d="M11080.7,5669.65c336.411,1506.94 1572.17,2958.32 3650.58,2967.62c2148.45,9.61 3511.95,-1560.96 3749.19,-3249.39" style="fill:none;stroke:#965849;stroke-width:500px;"/><path d="M16463.8,10503.4c0,-184.783 -150.02,-334.803 -334.802,-334.803l-2767.95,0c-184.782,0 -334.802,150.02 -334.802,334.803l0,669.605c0,184.782 150.02,334.802 334.802,334.802l2767.95,0c184.782,0 334.802,-150.02 334.802,-334.802l0,-669.605Z" style="fill:#965849;"/><path d="M13386.9,10536.4l2712.09,-2.945" style="fill:none;stroke:#b56e51;stroke-width:750px;"/><path d="M14748,10962.9l-0.144,-3606.45" style="fill:none;stroke:#965849;stroke-width:1000px;"/><path d="M14748,8889.33l0.009,-1044.46" style="fill:none;stroke:#ffcd8c;stroke-width:1010px;"/></g><g id="Cross"><path d="M20026.4,12817.2c88.45,20.103 112.526,20.81 195.618,58.753c62.221,28.414 120.263,65.205 172.511,109.352c26.064,22.022 49,47.498 73.5,71.247c3.833,4.261 7.658,8.53 11.476,12.805c14.293,16.109 28.441,32.343 42.363,48.773c27.713,32.707 54.635,66.085 80.725,100.1c66.583,86.811 127.755,177.757 183.157,272.095c62.499,106.425 117.641,217.131 165.364,330.943c34.726,82.816 65.526,167.268 92.52,252.914c18.87,59.869 35.881,120.322 51.093,181.222c12.309,49.278 23.444,98.849 33.449,148.646c60.183,299.525 79.211,606.412 68.44,911.432c-1.523,43.116 -3.641,86.211 -6.321,129.271c-3.474,55.836 -7.904,111.613 -13.219,167.304c-7.163,75.052 -15.932,149.95 -26.177,224.644c-12.559,91.572 -27.316,182.84 -44.045,273.742c-22.364,121.516 -48.244,242.377 -77.148,362.503c-38.297,159.16 -81.927,317.02 -129.945,473.515c-63.941,208.388 -135.713,414.348 -213.703,617.883c-124.52,324.965 -264.857,643.785 -416.828,956.813c-166.303,342.548 -346.637,678.226 -537.776,1007.53c-210.684,362.981 -434.591,718.253 -669.249,1066.2c-249.851,370.473 -511.942,732.675 -784.701,1086.61c-325.451,422.308 -666.11,832.924 -1020.98,1230.83c-184.49,206.862 -372.852,410.276 -565.108,609.942c-167.678,174.141 -338.315,345.439 -511.998,513.594c-327.206,316.793 -665.176,622.601 -1015.03,914.225c-174.678,145.602 -352.341,287.64 -533.218,425.472c-163.966,124.946 -330.576,246.441 -500.045,363.821c-227.121,157.311 -459.401,307.281 -697.441,447.559c-178.168,104.995 -359.588,204.552 -544.514,297.152c-137.466,68.834 -276.866,133.835 -418.279,194.159c-108.344,46.217 -217.876,89.666 -328.582,129.904c-82.144,29.857 -164.942,57.924 -248.37,83.983c-61.692,19.27 -123.728,37.442 -186.094,54.405c-47.043,12.795 -94.272,24.906 -141.678,36.281c-41.189,9.883 -82.51,19.213 -123.956,27.953c-284.453,59.985 -575.49,92.393 -866.392,84.998c-52.852,-1.344 -2156.36,-1055.22 -2108.6,-1104.19c47.759,-48.969 -1128.97,-1939.61 -1069.77,-1973.88c29.531,-17.094 91.353,-957.997 109.994,-929.418c268.544,411.737 864.182,2447.1 3120.66,2508.27c22.371,0.606 44.76,0.33 67.134,-0.125c26.663,-0.543 53.314,-1.657 79.933,-3.292c34.904,-2.144 69.752,-5.185 104.512,-9.015c46.035,-5.072 91.913,-11.534 137.588,-19.189c56.609,-9.487 112.907,-20.803 168.847,-33.651c72.589,-16.673 144.577,-35.926 215.93,-57.269c92.67,-27.72 184.273,-58.967 274.817,-92.982c109.852,-41.268 218.153,-86.621 324.995,-135.137c140.592,-63.842 278.671,-133.17 414.472,-206.631c181.292,-98.068 358.559,-203.515 532.3,-314.384c226.171,-144.327 446.417,-297.864 661.558,-458.138c287.123,-213.9 565.221,-439.834 835.514,-674.602c291.973,-253.599 574.873,-517.604 849.49,-789.881c295.173,-292.657 580.793,-594.934 857.113,-905.442c295.081,-331.59 579.548,-672.638 852.85,-1022.39c242.508,-310.35 476.184,-627.637 699.893,-951.806c204.589,-296.465 400.842,-598.729 587.062,-907.075c170.23,-281.871 332.104,-568.855 483.312,-861.389c138.348,-267.656 267.815,-540.004 385.265,-817.494c82.653,-195.279 159.331,-393.142 228.152,-593.728c53.664,-156.411 102.566,-314.5 145.244,-474.27c34.092,-127.63 64.223,-256.338 89.311,-386.046c19.547,-101.059 35.995,-202.738 48.613,-304.898c9.545,-77.289 16.893,-154.858 21.587,-232.595c3.763,-62.327 5.823,-124.762 5.881,-187.205c0.046,-48.938 -1.144,-97.883 -3.745,-146.753c-1.976,-37.125 -4.759,-74.209 -8.452,-111.203c-2.833,-28.373 -6.197,-56.693 -10.136,-84.934c-3.084,-22.117 -6.525,-44.185 -10.345,-66.187c-24.698,-142.269 -65.26,-282.479 -128.377,-412.642c-9.531,-19.656 -19.569,-39.065 -30.123,-58.191c-15.497,-28.083 -32.105,-55.555 -49.828,-82.289c-20.462,-30.867 -42.402,-60.75 -65.749,-89.497c-12.849,-15.821 -26.153,-31.251 -39.784,-46.402l-63.113,-80.592c-17.184,-29.478 -36.419,-57.853 -51.551,-88.435c-30.335,-61.307 -52.14,-126.477 -64.809,-193.695c-12.67,-67.218 -16.084,-135.854 -10.148,-203.998c2.961,-33.992 8.26,-67.861 15.822,-101.133c15.159,-66.701 39.372,-131.015 71.965,-191.152c16.259,-29.999 34.612,-58.952 54.804,-86.458c40.478,-55.139 88.309,-104.481 142.162,-146.655c53.854,-42.174 113.223,-76.782 176.458,-102.862c63.235,-26.08 129.74,-43.387 197.667,-51.44c33.884,-4.017 68.158,-3.39 102.237,-5.086c33.992,2.961 67.985,5.922 101.977,8.883Z" style="fill:#965849;fill-rule:nonzero;"/><path d="M11057.3,14433.2c47.644,0.106 95.285,0.426 142.925,1.092c95.793,1.34 191.57,3.879 287.302,7.567c410.687,15.819 820.485,52.596 1227.88,106.552c409.852,54.281 817.35,125.967 1221.61,212.451c268.218,57.38 535.03,121.313 800.244,191.27c259.482,68.444 517.442,142.649 773.707,222.29c539.028,167.517 1070.65,358.894 1593.05,572.664c388.699,159.057 772.322,330.586 1149.77,514.778c385.161,187.958 763.943,389.11 1134.46,604.535c332.145,193.115 657.697,397.734 974.288,615.451c274.827,188.996 542.977,387.87 801.725,598.386c194.699,158.407 384.104,323.407 566.299,496.075c141.016,133.643 277.717,271.888 408.762,415.336c100.336,109.83 197.35,222.719 290.203,338.951c66.948,83.804 131.727,169.35 193.931,256.735c45.776,64.306 90.156,129.607 132.952,195.934c31.002,48.049 61.167,96.639 90.417,145.775c21.075,35.404 41.672,71.093 61.764,107.064c139.021,248.894 254.026,512.13 331.33,786.838c12.158,43.204 23.383,86.671 33.613,130.373c13.079,55.879 24.533,112.14 34.251,168.701c13.114,76.332 23.06,153.212 29.609,230.387c8.496,100.126 11.241,200.75 7.879,301.184c-3.048,91.077 -11.122,181.987 -24.324,272.156c-5.168,35.3 -11.12,70.486 -17.856,105.521c-2.886,15.009 -5.938,29.984 -9.085,44.94l-1.347,6.303c-24.967,87.202 -27.006,111.201 -69.49,192.066c-31.813,60.553 -71.76,116.47 -118.731,166.195c-46.971,49.725 -100.523,92.791 -159.167,127.999c-58.645,35.209 -121.83,62.229 -187.799,80.31c-32.908,9.02 -66.51,15.804 -100.339,20.258c-67.817,8.93 -390.008,1718 -457.719,1708.31c-67.711,-9.698 -833.024,102.199 -612.939,-392.505c919.071,-2065.87 647.619,-2385.03 -84.61,-3379.5c-53.914,-73.222 -101.148,-151.162 -155.555,-224.011c-71.878,-96.241 -147.811,-189.432 -226.719,-279.987c-101.338,-116.296 -207.594,-228.273 -317.402,-336.592c-133.894,-132.079 -273.087,-258.744 -416.098,-380.873c-179.523,-153.309 -365.117,-299.463 -555.063,-439.625c-232.248,-171.376 -471.075,-333.781 -714.694,-488.536c-258.439,-164.168 -522.35,-319.694 -790.486,-467.473c-285.502,-157.351 -575.83,-305.917 -870.067,-446.245c-320.651,-152.924 -645.981,-296.036 -975.206,-429.495c-334.079,-135.427 -672.198,-260.912 -1013.8,-376.07c-329.073,-110.936 -661.388,-212.308 -996.534,-303.284c-305.701,-82.983 -613.767,-157.326 -923.863,-222.009c-296.901,-61.931 -595.683,-114.994 -895.939,-157.852c-290.581,-41.477 -582.568,-73.396 -875.383,-93.988c-239.513,-16.844 -479.591,-26.088 -719.705,-26.4c-190.294,-0.246 -380.615,5.135 -570.544,17.015c-144.236,9.021 -288.247,21.797 -431.765,38.796c-107.029,12.676 -213.782,27.702 -320.114,45.3c-77.796,12.875 -155.363,27.135 -232.633,42.86c-226.57,46.111 -450.685,104.921 -669.737,179.056c-202.663,68.588 -400.971,150.447 -591.672,247.556c-66.382,33.803 -131.765,69.525 -196.125,107.034l-5.732,3.355l-6.312,3.71l-91.58,45.731c-32.318,10.945 -63.965,24.121 -96.955,32.835c-66.134,17.469 -134.346,25.808 -202.74,24.786c-68.395,-1.022 -136.328,-11.395 -201.91,-30.832c-65.582,-19.436 -128.197,-47.753 -186.104,-84.163c-28.885,-18.162 -56.593,-38.347 -82.737,-60.273c-52.409,-43.956 -98.559,-94.874 -137.166,-151.339c-19.258,-28.167 -36.63,-57.72 -51.874,-88.247c-30.558,-61.196 -52.601,-126.285 -65.516,-193.457c-6.442,-33.507 -10.602,-67.534 -12.422,-101.607c-3.648,-68.304 2.065,-136.787 16.981,-203.543c14.916,-66.756 38.893,-131.157 71.266,-191.413c16.149,-30.058 34.396,-59.079 54.488,-86.657c40.276,-55.287 87.926,-104.804 141.625,-147.174c26.787,-21.136 56.231,-38.669 84.501,-57.776c2.421,-1.636 5.037,-2.964 7.557,-4.442c2.718,-1.594 5.436,-3.185 8.156,-4.773c8.095,-4.728 16.202,-9.433 24.321,-14.118c40.648,-23.451 81.608,-46.362 122.861,-68.734c148.801,-80.696 301.385,-154.364 456.853,-221.306c447.573,-192.715 918.176,-329.206 1396.39,-420.991c73.33,-14.075 146.862,-27.095 220.557,-39.112c90.299,-14.726 180.843,-27.939 271.573,-39.72c111.099,-14.426 222.476,-26.703 334.036,-36.96c139.25,-12.803 278.785,-22.468 418.457,-29.228c100.769,-4.877 201.612,-8.247 302.48,-10.181c54.128,-1.039 108.26,-1.62 162.397,-1.896c20.362,-0.068 40.723,-0.098 61.085,-0.091Z" style="fill:#965849;fill-rule:nonzero;"/><path d="M11219.6,14433.8c81.179,0.295 3113.91,17.668 6039.06,1382.16c706.682,329.646 319.259,1742.69 -779.503,1299.36c-5658.03,-2282.96 -9180.4,-821.659 -9653.9,1277.45c-15.051,66.725 -700.892,-69.479 -701.686,-137.877c-0.795,-68.397 516.131,-2760.43 1189.31,-3000.99c32.131,-11.482 901.304,-400.157 1026.45,-440.578c126.56,-40.877 254.204,-80.316 383.163,-112.813c175.509,-44.227 352.778,-81.347 531.019,-112.731c179.984,-31.692 360.986,-57.509 542.526,-78.465c190.126,-21.947 380.861,-38.547 571.867,-50.576c176.312,-11.103 352.866,-18.325 529.487,-22.025c82.772,-1.734 165.554,-2.626 248.343,-2.919c24.621,-0.042 49.241,-0.042 73.862,0.002Z" style="fill:#ffcd8c;fill-rule:nonzero;"/><path d="M19505.8,12844.4c843.897,-456.002 1622.29,853.111 1629.81,904.23c6.953,47.264 96.669,928.179 101.775,975.678c36.399,338.605 -11.095,685.871 -52.431,1023.55c-8.016,65.48 -17.224,130.813 -27.533,195.971c-12.051,76.16 -25.607,152.08 -40.528,227.73c-19.949,101.136 -42.348,201.786 -66.899,301.904c-32.526,132.636 -68.833,264.336 -108.349,395.057c-52.382,173.288 -110.412,344.854 -173.036,514.703c-81.277,220.435 -170.289,437.991 -265.388,652.813c-129.993,293.645 -271.337,582.219 -421.29,866.169c-97.738,185.076 -199.168,368.196 -303.799,549.463c-109.091,188.995 -221.663,375.979 -337.363,561.001c-173.39,277.28 -353.704,550.26 -540.822,818.467c-73.945,105.989 -148.97,211.229 -225.275,315.532c-30.005,41.016 -60.214,81.883 -90.669,122.565c-27.451,36.669 -55.106,73.186 -83.103,109.44l-4.538,5.852l-3.414,4.383l-68.271,76.273c-26.006,22.088 -50.566,46.003 -78.02,66.266c-55.035,40.619 -115.368,73.519 -179.322,97.784c-63.953,24.265 -130.925,39.667 -199.054,45.777c-33.984,3.049 -68.257,3.774 -102.34,2.166c-68.326,-3.223 -135.89,-15.778 -200.813,-37.316c-32.385,-10.743 -64.109,-23.732 -94.73,-38.786c-61.386,-30.177 -118.354,-68.61 -169.321,-114.23c-25.424,-22.757 -49.347,-47.309 -71.436,-73.316c-44.281,-52.135 -81.221,-110.082 -109.793,-172.231c-28.573,-62.148 -48.51,-127.913 -59.255,-195.466c-10.746,-67.552 -12.2,-136.257 -4.322,-204.204c7.879,-67.947 25.015,-134.496 50.933,-197.798c12.929,-31.577 28.052,-62.341 45.161,-91.863c17.108,-29.522 38.165,-56.572 57.248,-84.858c4.852,-6.229 9.669,-12.484 14.483,-18.742c50.685,-66.151 100.351,-133.08 149.48,-200.393c61.88,-84.785 122.83,-170.249 183.006,-256.251c152.855,-218.459 300.747,-440.406 443.732,-665.447c101.967,-160.484 178.168,-325.02 274.818,-488.761c92.201,-156.202 181.879,-313.901 268.635,-473.193c139.356,-255.875 271.338,-515.832 393.403,-780.412c93.439,-202.53 181.069,-407.795 260.951,-616.06c62.22,-162.219 116.706,-327.247 171.131,-492.255c654.966,-1985.77 -909.279,-3806.21 -2307.03,-4429.21c-62.477,-27.847 -321.689,-436.164 -296.217,-499.646c25.473,-63.482 1290.29,227.465 1331.95,173.21c20.779,-27.065 1247.68,1156.97 1307.86,1124.45Z" style="fill:#ffcd8c;fill-rule:nonzero;"/><path d="M21665.3,23876.6c-1257.67,1919.31 -3023.16,3211.54 -5418.28,3726.32" style="fill:none;stroke:#ffcd8c;stroke-width:750px;"/></g></g></svg>
