<?xml version="1.0" standalone="no"?>
<!DOCTYPE svg PUBLIC "-//W3C//DTD SVG 20010904//EN"
 "http://www.w3.org/TR/2001/REC-SVG-20010904/DTD/svg10.dtd">
<svg version="1.0" xmlns="http://www.w3.org/2000/svg"
 width="513.000000pt" height="513.000000pt" viewBox="0 0 513.000000 513.000000"
 preserveAspectRatio="xMidYMid meet">
<metadata>
Created by potrace 1.11, written by Peter Selinger 2001-2013
</metadata>
<g transform="translate(0.000000,513.000000) scale(0.100000,-0.100000)"
fill="#000000" stroke="none">
<path d="M2510 4983 c-19 -2 -66 -11 -105 -20 -257 -60 -458 -265 -521 -529
-14 -60 -13 -239 2 -304 59 -259 252 -460 501 -523 l90 -23 -1 -110 -1 -109
-80 -1 c-44 0 -90 -6 -102 -13 -24 -12 -26 -19 -27 -85 l-1 -39 -90 -23 c-356
-90 -689 -326 -897 -636 -406 -603 -340 -1416 156 -1935 372 -390 911 -561
1441 -458 558 109 1027 541 1184 1090 44 154 55 236 55 410 1 179 -5 255 -30
364 -101 448 -397 830 -804 1040 -117 60 -290 125 -367 137 -24 4 -44 12 -45
18 0 6 -2 25 -3 41 -3 60 -5 65 -32 78 -17 7 -59 12 -105 11 l-77 -1 2 111 2
111 72 16 c221 52 403 209 487 420 54 140 63 253 32 424 -9 45 -40 124 -73
183 -128 233 -398 377 -663 355z m200 -199 c202 -58 353 -239 375 -450 18
-186 -78 -383 -238 -489 -55 -36 -172 -79 -188 -70 -5 4 -9 30 -9 60 0 48 -3
56 -32 80 -25 21 -38 25 -62 21 -58 -11 -85 -65 -76 -149 1 -16 -3 -18 -32
-12 -81 17 -179 74 -246 142 -108 110 -152 216 -153 368 0 255 187 476 434
513 70 10 160 5 227 -14z m68 -1860 c46 -8 120 -26 165 -40 82 -26 248 -104
278 -130 8 -8 19 -14 23 -14 4 0 34 -20 67 -45 59 -46 72 -69 95 -176 10 -46
4 -165 -12 -219 -24 -86 -26 -90 -36 -90 -5 0 -51 22 -101 49 -120 65 -341
162 -469 206 -160 56 -394 112 -543 130 -27 4 -79 11 -115 16 -36 5 -141 8
-233 6 l-169 -2 39 33 c89 78 220 155 363 216 43 18 186 55 243 62 23 4 44 8
46 10 10 9 288 0 359 -12z m-698 -578 c313 -17 761 -157 1108 -345 34 -19 62
-38 62 -43 0 -18 -117 -213 -191 -319 -69 -99 -111 -153 -202 -264 -48 -58
-302 -314 -363 -365 -207 -177 -450 -312 -587 -327 -44 -5 -51 -2 -100 35
-421 325 -588 892 -411 1396 9 28 23 61 31 75 7 15 13 32 13 39 0 17 90 57
183 82 103 28 121 30 232 37 55 3 102 7 103 8 2 2 9 2 15 0 7 -2 55 -6 107 -9z
m1619 -138 c34 -75 79 -215 85 -263 2 -19 7 -39 11 -45 15 -24 -14 -6 -65 41
-30 28 -73 64 -95 80 l-40 29 35 110 c19 60 36 110 38 110 2 0 16 -28 31 -62z
m-83 -516 c31 -30 83 -91 115 -135 48 -64 58 -84 53 -105 -18 -80 -28 -113
-51 -177 -134 -362 -434 -649 -793 -758 -222 -68 -438 -75 -674 -22 -50 10
-48 15 11 47 367 194 840 671 1118 1128 32 52 64 105 72 118 l14 23 39 -31
c22 -17 65 -57 96 -88z"/>
<path d="M2158 2055 c-2 -1 -32 -5 -68 -9 -136 -13 -295 -75 -408 -160 -95
-73 -112 -106 -71 -147 28 -28 60 -19 118 32 247 218 659 217 916 -3 61 -51
96 -58 122 -21 23 30 14 56 -36 102 -98 93 -286 180 -421 196 -67 7 -149 13
-152 10z"/>
<path d="M2107 1808 c-94 -12 -172 -42 -257 -99 -102 -68 -127 -113 -87 -153
32 -31 58 -26 114 25 164 149 449 151 612 4 20 -19 50 -39 65 -45 23 -8 31 -6
52 15 13 13 24 32 24 42 0 27 -101 116 -172 151 -113 55 -232 76 -351 60z"/>
<path d="M2117 1563 c-69 -15 -108 -35 -163 -79 -53 -43 -70 -85 -45 -115 27
-33 64 -27 117 20 98 86 239 85 327 -3 50 -49 98 -51 116 -4 12 34 3 55 -48
100 -85 76 -197 106 -304 81z"/>
<path d="M2156 1329 c-92 -25 -118 -137 -46 -201 24 -22 40 -28 76 -28 39 0
51 5 80 34 40 40 46 78 23 136 -17 44 -82 73 -133 59z"/>
</g>
</svg>
